<svg xmlns="http://www.w3.org/2000/svg" width="36" height="63" viewBox="0 0 36 63" fill="none">
  <path d="M35.4996 57.0004L25.4996 51.2269L25.4996 62.7739L35.4996 57.0004ZM1.00041 53.0004L2.00041 53.0004L1.00041 53.0004ZM5.00041 57.0004L5.00041 58.0004L5.00041 57.0004ZM0.000415634 0.000363663L0.00041645 1.89322L2.00042 1.89322L2.00042 0.000363542L0.000415634 0.000363663ZM0.000416206 5.67893L0.000416141 9.46465L2.00042 9.46465L2.00042 5.67893L0.000416206 5.67893ZM0.000415837 13.2504L0.000415534 17.0361L2.00042 17.0361L2.00041 13.2504L0.000415837 13.2504ZM0.000415708 20.8218L0.000414926 24.6075L2.00042 24.6075L2.00042 20.8218L0.000415708 20.8218ZM0.0004151 28.3932L0.000414319 32.1789L2.00042 32.1789L2.00042 28.3932L0.0004151 28.3932ZM0.000415384 35.9646L0.000415081 39.7504L2.00042 39.7504L2.00041 35.9646L0.000415384 35.9646ZM0.000414777 43.5361L0.000414473 47.3218L2.00042 47.3218L2.00041 43.5361L0.000414777 43.5361ZM0.00041417 51.1075L0.000413636 53.0004L2.00041 53.0004L2.00042 51.1075L0.00041417 51.1075ZM0.000413636 53.0004C0.000415474 53.6765 0.135165 54.3236 0.380212 54.9146L2.22766 54.1485C2.08155 53.7961 2.00041 53.409 2.00041 53.0004L0.000413636 53.0004ZM3.08621 57.6206C3.67714 57.8656 4.3243 58.0004 5.00041 58.0004L5.00042 56.0004C4.5918 56.0004 4.20465 55.9192 3.85232 55.7731L3.08621 57.6206ZM5.00041 58.0004L6.90661 58.0004L6.90661 56.0004L5.00042 56.0004L5.00041 58.0004ZM10.719 58.0004L14.5314 58.0004L14.5314 56.0004L10.719 56.0004L10.719 58.0004ZM18.3438 58.0004L22.1562 58.0004L22.1562 56.0004L18.3438 56.0004L18.3438 58.0004ZM25.9686 58.0004L29.781 58.0004L29.781 56.0004L25.9686 56.0004L25.9686 58.0004Z" fill="#9E9E9E"/>
</svg>