<svg width="121" height="12" viewBox="0 0 121 12" fill="none" xmlns="http://www.w3.org/2000/svg">
<path d="M120.5 6.00103L110.5 0.227285L110.499 11.7743L120.5 6.00103ZM102 6.00058L102 5.00058L102 5.00058L102 6.00058ZM0.499943 7.00089L2.45187 7.00088L2.45187 5.00088L0.49994 5.00089L0.499943 7.00089ZM6.35574 7.00087L10.2596 7.00086L10.2596 5.00086L6.35573 5.00087L6.35574 7.00087ZM14.1635 7.00085L18.0673 7.00083L18.0673 5.00084L14.1635 5.00085L14.1635 7.00085ZM21.9712 7.00082L25.875 7.00081L25.875 5.00081L21.9712 5.00082L21.9712 7.00082ZM29.7789 7.0008L33.6828 7.00079L33.6828 5.00079L29.7789 5.0008L29.7789 7.0008ZM37.5866 7.00078L41.4905 7.00076L41.4905 5.00076L37.5866 5.00078L37.5866 7.00078ZM45.3944 7.00075L49.2982 7.00074L49.2982 5.00074L45.3943 5.00075L45.3944 7.00075ZM53.2021 7.00073L57.1059 7.00072L57.1059 5.00072L53.2021 5.00073L53.2021 7.00073ZM61.0098 7.0007L64.9137 7.00069L64.9137 5.00069L61.0098 5.0007L61.0098 7.0007ZM68.8175 7.00068L72.7214 7.00067L72.7214 5.00067L68.8175 5.00068L68.8175 7.00068ZM76.6252 7.00066L80.5291 7.00064L80.5291 5.00064L76.6252 5.00065L76.6252 7.00066ZM84.433 7.00063L88.3368 7.00062L88.3368 5.00062L84.433 5.00063L84.433 7.00063ZM92.2407 7.00061L96.1446 7.0006L96.1445 5.0006L92.2407 5.00061L92.2407 7.00061ZM100.048 7.00058L102 7.00058L102 5.00058L100.048 5.00058L100.048 7.00058ZM102 7.00058L104.313 7.00063L104.313 5.00064L102 5.00058L102 7.00058ZM108.938 7.00075L113.562 7.00086L113.562 5.00086L108.938 5.00075L108.938 7.00075Z" fill="#9E9E9E"/>
</svg>
