<svg width="64" height="12" viewBox="0 0 64 12" fill="none" xmlns="http://www.w3.org/2000/svg">
<path d="M63.4994 6.00137L53.4996 0.227618L53.4993 11.7746L63.4994 6.00137ZM45.0002 6.00091L45.0002 5.00091L45.0002 5.00091L45.0002 6.00091ZM0.499931 7.00101L2.35411 7.00101L2.35411 5.00101L0.499928 5.00101L0.499931 7.00101ZM6.06247 7.001L9.77082 7.00099L9.77082 5.00099L6.06246 5.001L6.06247 7.001ZM13.4792 7.00098L17.1875 7.00097L17.1875 5.00097L13.4792 5.00098L13.4792 7.00098ZM20.8959 7.00097L24.6042 7.00096L24.6042 5.00096L20.8959 5.00096L20.8959 7.00097ZM28.3126 7.00095L32.021 7.00094L32.021 5.00094L28.3126 5.00095L28.3126 7.00095ZM35.7293 7.00093L39.4377 7.00092L39.4377 5.00092L35.7293 5.00093L35.7293 7.00093ZM43.146 7.00091L45.0002 7.00091L45.0002 5.00091L43.146 5.00092L43.146 7.00091ZM45.0002 7.00091L47.3126 7.00097L47.3126 5.00097L45.0002 5.00091L45.0002 7.00091ZM51.9374 7.00108L56.5622 7.0012L56.5622 5.0012L51.9374 5.00108L51.9374 7.00108Z" fill="#9E9E9E"/>
</svg>
