<svg height="24" viewBox="0 0 24 24" width="24" xmlns="http://www.w3.org/2000/svg"><g><circle cx="12" cy="12" fill="#85754A1F" r="12"></circle><g transform="translate(4, 4) scale(0.3333333333333333)"><path clip-rule="evenodd" d="M21 6C21 4.34315 22.3431 3 24 3C25.6569 3 27 4.34315 27 6V8.55731C27 9.45924 27.4371 10.2685 28.1012 10.8559C29.0669 8.39844 30.0942 6.29966 31.053 5.34084C34.2086 2.18518 39.3649 2.22516 42.5699 5.43011C45.7748 8.63507 45.8148 13.7914 42.6592 16.947C41.7003 17.9058 39.6016 18.9331 37.1441 19.8988C37.7315 20.5629 38.5408 21 39.4427 21H42C43.6569 21 45 22.3431 45 24C45 25.6569 43.6569 27 42 27H39.4427C38.5408 27 37.7315 27.4371 37.1441 28.1012C39.6016 29.0669 41.7003 30.0942 42.6592 31.053C45.8148 34.2086 45.7748 39.3649 42.5699 42.5699C39.3649 45.7748 34.2086 45.8148 31.053 42.6592C30.0942 41.7003 29.0669 39.6016 28.1012 37.1441C27.4371 37.7315 27 38.5408 27 39.4427V42C27 43.6569 25.6569 45 24 45C22.3431 45 21 43.6569 21 42V39.4427C21 38.5408 20.5629 37.7315 19.8988 37.1441C18.9331 39.6016 17.9058 41.7003 16.947 42.6592C13.7914 45.8148 8.63507 45.7748 5.43011 42.5699C2.22516 39.3649 2.18518 34.2086 5.34084 31.053C6.29966 30.0942 8.39844 29.0669 10.8559 28.1012C10.2685 27.4371 9.45924 27 8.55731 27H6C4.34315 27 3 25.6569 3 24C3 22.3431 4.34315 21 6 21H8.55731C9.45924 21 10.2685 20.5629 10.8559 19.8988C8.39844 18.9331 6.29966 17.9058 5.34084 16.947C2.18518 13.7914 2.22516 8.63507 5.43011 5.43011C8.63507 2.22516 13.7914 2.18518 16.947 5.34084C17.9058 6.29966 18.9331 8.39844 19.8988 10.8559C20.5629 10.2685 21 9.45924 21 8.55731V6Z" fill="#85754A" fill-rule="evenodd"></path></g></g></svg>