<svg width="24" height="24" viewBox="0 0 24 24" fill="none" xmlns="http://www.w3.org/2000/svg">
<g clip-path="url(#clip0_20607_7302)">
<g clip-path="url(#clip1_20607_7302)">
<path d="M-4.36377 -0.272728H28.3635V24.2727H-4.36377V-0.272728Z" fill="#012169"/>
<path d="M-0.528542 -0.272728L11.9487 8.98295L24.3749 -0.272728H28.3635V2.89773L16.0908 12.0511L28.3635 21.1534V24.2727H24.2726L11.9999 15.1193L-0.221724 24.2727H-4.36377V21.2045L7.85782 12.1023L-4.36377 3V-0.272728H-0.528542Z" fill="white"/>
<path d="M17.318 14.0966L28.3635 22.2273V24.2727L14.5055 14.0966H17.318ZM7.90896 15.1193L8.21578 16.9091L-1.60241 24.2727H-4.36377L7.90896 15.1193ZM28.3635 -0.272728V-0.119319L15.6305 9.49432L15.7328 7.24432L25.8067 -0.272728H28.3635ZM-4.36377 -0.272728L7.85782 8.72727H4.78964L-4.36377 1.875V-0.272728Z" fill="#C8102E"/>
<path d="M7.96009 -0.272728V24.2727H16.1419V-0.272728H7.96009ZM-4.36377 7.90909V16.0909H28.3635V7.90909H-4.36377Z" fill="white"/>
<path d="M-4.36377 9.59659V14.5057H28.3635V9.59659H-4.36377ZM9.59646 -0.272728V24.2727H14.5055V-0.272728H9.59646Z" fill="#C8102E"/>
</g>
</g>
<defs>
<clipPath id="clip0_20607_7302">
<rect width="24" height="24" rx="12" fill="white"/>
</clipPath>
<clipPath id="clip1_20607_7302">
<rect width="32.7273" height="24.5455" fill="white" transform="translate(-4.36377 -0.272728)"/>
</clipPath>
</defs>
</svg>
