<svg width="23" height="22" viewBox="0 0 23 22" fill="none" xmlns="http://www.w3.org/2000/svg">
<g clip-path="url(#clip0_20607_2060)">
<path d="M11.9616 20.1666C6.89884 20.1666 2.79492 16.0627 2.79492 10.9999C2.79492 5.93717 6.89884 1.83325 11.9616 1.83325C17.0243 1.83325 21.1283 5.93717 21.1283 10.9999C21.1283 16.0627 17.0243 20.1666 11.9616 20.1666ZM8.75325 12.8333V14.6666H11.0449V16.4999H12.8783V14.6666H13.7949C14.4027 14.6666 14.9856 14.4251 15.4154 13.9954C15.8451 13.5656 16.0866 12.9827 16.0866 12.3749C16.0866 11.7671 15.8451 11.1842 15.4154 10.7545C14.9856 10.3247 14.4027 10.0833 13.7949 10.0833H10.1283C10.0067 10.0833 9.89012 10.035 9.80416 9.94901C9.71821 9.86306 9.66992 9.74648 9.66992 9.62492C9.66992 9.50336 9.71821 9.38678 9.80416 9.30083C9.89012 9.21487 10.0067 9.16658 10.1283 9.16658H15.1699V7.33325H12.8783V5.49992H11.0449V7.33325H10.1283C9.52047 7.33325 8.93757 7.57469 8.5078 8.00447C8.07803 8.43424 7.83659 9.01713 7.83659 9.62492C7.83659 10.2327 8.07803 10.8156 8.5078 11.2454C8.93757 11.6751 9.52047 11.9166 10.1283 11.9166H13.7949C13.9165 11.9166 14.0331 11.9649 14.119 12.0508C14.205 12.1368 14.2533 12.2534 14.2533 12.3749C14.2533 12.4965 14.205 12.6131 14.119 12.699C14.0331 12.785 13.9165 12.8333 13.7949 12.8333H8.75325Z" fill="#616161"/>
</g>
<defs>
<clipPath id="clip0_20607_2060">
<rect width="22" height="22" fill="white" transform="translate(0.961426)"/>
</clipPath>
</defs>
</svg>
