<svg width="22" height="22" viewBox="0 0 22 22" fill="none" xmlns="http://www.w3.org/2000/svg">
<g clip-path="url(#clip0_20607_2054)">
<path d="M1.87939 11.9167H6.89998C7.05683 14.8196 7.98215 17.6288 9.58123 20.0567C7.57825 19.7421 5.73599 18.7726 4.34249 17.2998C2.949 15.827 2.08282 13.934 1.87939 11.9167ZM1.87939 10.0834C2.08282 8.06605 2.949 6.17302 4.34249 4.70025C5.73599 3.22747 7.57825 2.25798 9.58123 1.94336C7.98215 4.37125 7.05683 7.18041 6.89998 10.0834H1.87939ZM20.1211 10.0834H15.1005C14.9436 7.18041 14.0183 4.37125 12.4192 1.94336C14.4222 2.25798 16.2645 3.22747 17.658 4.70025C19.0515 6.17302 19.9176 8.06605 20.1211 10.0834ZM20.1211 11.9167C19.9176 13.934 19.0515 15.827 17.658 17.2998C16.2645 18.7726 14.4222 19.7421 12.4192 20.0567C14.0183 17.6288 14.9436 14.8196 15.1005 11.9167H20.122H20.1211ZM8.73606 11.9167H13.2644C13.1135 14.3912 12.3343 16.7864 11.0002 18.876C9.6662 16.7864 8.88694 14.3912 8.73606 11.9167ZM8.73606 10.0834C8.88694 7.60883 9.6662 5.21363 11.0002 3.12403C12.3343 5.21363 13.1135 7.60883 13.2644 10.0834H8.73606Z" fill="#616161"/>
</g>
<defs>
<clipPath id="clip0_20607_2054">
<rect width="22" height="22" fill="white"/>
</clipPath>
</defs>
</svg>
