<svg width="22" height="22" viewBox="0 0 22 22" fill="none" xmlns="http://www.w3.org/2000/svg">
<g clip-path="url(#clip0_20607_2066)">
<path d="M14.0857 3.15161L17.0291 8.25011H20.1668V10.0834H19.0971L18.4032 18.4095C18.3841 18.6386 18.2796 18.8521 18.1105 19.0078C17.9414 19.1635 17.72 19.25 17.4902 19.2501H4.51016C4.28031 19.25 4.05888 19.1635 3.88978 19.0078C3.72068 18.8521 3.61624 18.6386 3.59716 18.4095L2.90233 10.0834H1.8335V8.25011H4.97033L7.91466 3.15161L9.50233 4.06828L7.08783 8.25011H14.9116L12.498 4.06828L14.0857 3.15161ZM11.9168 11.9168H10.0835V15.5834H11.9168V11.9168ZM8.25016 11.9168H6.41683V15.5834H8.25016V11.9168ZM15.5835 11.9168H13.7502V15.5834H15.5835V11.9168Z" fill="#616161"/>
</g>
<defs>
<clipPath id="clip0_20607_2066">
<rect width="22" height="22" fill="white"/>
</clipPath>
</defs>
</svg>
