<svg width="24" height="24" viewBox="0 0 24 24" fill="none" xmlns="http://www.w3.org/2000/svg">
<path d="M12.3563 3.14768C12.2345 3.01666 12.0298 2.96639 11.8475 3.02299C11.7019 3.06733 11.5942 3.17143 11.5567 3.29652C11.4619 3.45168 10.9957 4.00031 10.5029 4.5802C8.23036 7.25484 4 12.2336 4 15.0848C4 18.8979 7.58873 22 11.9995 22C16.4113 22 20 18.8979 20 15.0848C20 11.3877 12.6687 3.48216 12.3563 3.14768Z" fill="currentColor"/>
<path d="M13.5834 13.5883C13.2302 13.3931 12.8547 13.2444 12.4829 13.0902C12.2673 13.0009 12.061 12.8969 11.8788 12.7519C11.5201 12.4656 11.5889 12.0009 12.009 11.8169C12.1279 11.7648 12.2525 11.7481 12.3789 11.7407C12.8659 11.7147 13.3287 11.8039 13.7692 12.0158C13.9886 12.1217 14.0611 12.0883 14.1354 11.8596C14.2135 11.618 14.2785 11.3726 14.351 11.1291C14.3994 10.9656 14.3399 10.8577 14.1856 10.789C13.9031 10.6644 13.6131 10.5752 13.3083 10.5269C12.9105 10.4655 12.9105 10.4637 12.9086 10.064C12.9068 9.50083 12.9068 9.50083 12.3417 9.50083C12.2599 9.50083 12.1781 9.49897 12.0963 9.50083C11.8324 9.50826 11.7878 9.55473 11.7803 9.82054C11.7766 9.9395 11.7803 10.0585 11.7785 10.1793C11.7766 10.5325 11.7747 10.5269 11.4364 10.6496C10.6186 10.947 10.113 11.5046 10.0591 12.3968C10.0107 13.1868 10.4234 13.7203 11.0721 14.1088C11.4718 14.3486 11.9142 14.4898 12.338 14.6776C12.5034 14.7501 12.6614 14.8337 12.7989 14.949C13.206 15.2854 13.1317 15.8449 12.6484 16.0568C12.39 16.1702 12.1168 16.1981 11.8361 16.1628C11.403 16.1089 10.9885 15.9955 10.5981 15.7929C10.3695 15.6739 10.3026 15.7055 10.2245 15.9527C10.1576 16.1665 10.0981 16.3821 10.0386 16.5977C9.9587 16.8877 9.98844 16.9565 10.2654 17.0922C10.6186 17.2632 10.9959 17.3505 11.3807 17.4119C11.6818 17.4602 11.6911 17.4732 11.6948 17.7855C11.6967 17.9268 11.6967 18.0699 11.6985 18.2112C11.7004 18.3896 11.7859 18.4937 11.9699 18.4974C12.1781 18.5011 12.3881 18.5011 12.5963 18.4956C12.7673 18.4918 12.8547 18.3989 12.8547 18.226C12.8547 18.0327 12.864 17.8375 12.8566 17.6442C12.8473 17.4472 12.9328 17.3468 13.1224 17.2948C13.5592 17.1758 13.9309 16.9416 14.2172 16.5921C15.0128 15.6256 14.7098 14.211 13.5834 13.5883Z" fill="white"/>
</svg>
