<svg width="24" height="24" viewBox="0 0 24 24" fill="none" xmlns="http://www.w3.org/2000/svg">
<path d="M13.5084 3.12099C12.6804 2.293 11.323 2.293 10.495 3.12099L3.12439 10.4916C2.72398 10.892 2.5 11.4282 2.5 11.9983C2.5 12.5684 2.72398 13.1046 3.12439 13.505L10.495 20.8756C10.909 21.2896 11.4588 21.5 12.0017 21.5C12.5446 21.5 13.0944 21.2896 13.5084 20.8756L20.879 13.505C21.2794 13.1046 21.5034 12.5684 21.5034 11.9983C21.5034 11.4282 21.2794 10.892 20.879 10.4916L13.5084 3.12099ZM11.2959 14.8692C11.2959 15.161 11.1126 15.4189 10.8344 15.5139L9.26655 16.0365C9.19869 16.0569 9.12405 16.0705 9.0494 16.0705C8.77111 16.0705 8.50641 15.894 8.41143 15.609C8.28927 15.2492 8.47928 14.8692 8.83901 14.747L9.93849 14.3805V9.61608L8.83901 9.2496C8.47928 9.1274 8.28927 8.74734 8.41143 8.38765C8.52679 8.03472 8.90686 7.84471 9.26655 7.96007L10.8344 8.48268C11.1126 8.57766 11.2959 8.83557 11.2959 9.1274V14.8692ZM15.1644 14.747C15.5241 14.8692 15.7141 15.2492 15.592 15.609C15.497 15.894 15.2323 16.0705 14.954 16.0705C14.8793 16.0705 14.8047 16.0569 14.7369 16.0365L13.169 15.5139C12.8908 15.4189 12.7075 15.161 12.7075 14.8692V9.1274C12.7075 8.83557 12.8908 8.57766 13.169 8.48268L14.7369 7.96007C15.0965 7.84471 15.4766 8.03472 15.592 8.38765C15.7141 8.74734 15.5241 9.1274 15.1644 9.2496L14.0649 9.61608V14.3805L15.1644 14.747Z" fill="currentColor"/>
</svg>
