<svg width="22" height="22" viewBox="0 0 22 22" fill="none" xmlns="http://www.w3.org/2000/svg">
<g clip-path="url(#clip0_20607_2073)">
<path d="M19.3909 12.0322C18.4088 11.298 17.2144 10.9361 16.0068 11.0068C14.7992 11.0775 13.6514 11.5766 12.7548 12.4209C11.8581 13.2651 11.2669 14.4035 11.0795 15.6462C10.8922 16.8889 11.1201 18.1609 11.7253 19.25H2.64411C2.41034 19.25 2.18615 19.1534 2.02085 18.9815C1.85556 18.8096 1.7627 18.5764 1.7627 18.3333V3.66667C1.7627 3.42355 1.85556 3.19039 2.02085 3.01849C2.18615 2.84658 2.41034 2.75 2.64411 2.75H9.17888L10.9417 4.58333H18.5095C18.7433 4.58333 18.9675 4.67991 19.1328 4.85182C19.298 5.02373 19.3909 5.25688 19.3909 5.5V12.0322ZM15.8653 15.5833V12.375L20.2723 16.5L15.8653 20.625V17.4167H13.221V15.5833H15.8653Z" fill="#616161"/>
</g>
<defs>
<clipPath id="clip0_20607_2073">
<rect width="21.1539" height="22" fill="white"/>
</clipPath>
</defs>
</svg>
