<svg width="24" height="25" viewBox="0 0 24 25" fill="none" xmlns="http://www.w3.org/2000/svg">
<path fill-rule="evenodd" clip-rule="evenodd" d="M13 5.5C12.4477 5.5 12 5.05228 12 4.5C12 3.94772 12.4477 3.5 13 3.5C16.866 3.5 20 6.63401 20 10.5V18.0852L21.2928 16.7926L21.3871 16.7094C21.7793 16.4043 22.3466 16.432 22.7071 16.7925C23.0976 17.183 23.0977 17.8161 22.7072 18.2067L19.7072 21.2071C19.6777 21.2365 19.6465 21.2641 19.6137 21.2896L19.6129 21.2903C19.5413 21.3459 19.4639 21.3905 19.383 21.424C19.265 21.473 19.1357 21.5 19 21.5C18.7441 21.5 18.4881 21.4024 18.2928 21.2071L15.2928 18.2067L15.2097 18.1125C14.9047 17.7202 14.9324 17.1529 15.2929 16.7925L15.3871 16.7093C15.7795 16.4043 16.3467 16.4321 16.7072 16.7926L18 18.0852V10.5L17.9954 10.2831C17.8818 7.62231 15.6888 5.5 13 5.5Z" fill="currentColor"/>
<path fill-rule="evenodd" clip-rule="evenodd" d="M1.29289 8.20674C0.902369 7.81622 0.902369 7.18305 1.29289 6.79253L4.29289 3.79253L4.29621 3.7896C4.32353 3.76253 4.35242 3.73702 4.3827 3.71322L4.3871 3.70934C4.77939 3.40431 5.34662 3.43204 5.70711 3.79253L8.70711 6.79253L8.7903 6.88673C9.09532 7.27903 9.06759 7.84626 8.70711 8.20674L8.6129 8.28993C8.22061 8.59495 7.65338 8.56722 7.29289 8.20674L6 6.91394L6 14.5L6.00462 14.7169C6.11818 17.3777 8.31124 19.5 11 19.5C11.5523 19.5 12 19.9477 12 20.5C12 21.0523 11.5523 21.5 11 21.5C7.13401 21.5 4 18.366 4 14.5L4 6.91394L2.70711 8.20674L2.6129 8.28993C2.22061 8.59495 1.65338 8.56722 1.29289 8.20674Z" fill="currentColor"/>
</svg>
