<svg width="96" height="96" viewBox="0 0 96 96" fill="none" xmlns="http://www.w3.org/2000/svg">
<path fill-rule="evenodd" clip-rule="evenodd" d="M78 53.4248H18V81.1928C18 82.5173 18.8685 83.6858 20.1375 84.0668C26.166 85.8743 43.119 90.9608 47.1375 92.1668C47.7 92.3348 48.3 92.3348 48.8625 92.1668C52.881 90.9608 69.834 85.8743 75.8625 84.0668C77.1315 83.6858 78 82.5173 78 81.1928C78 74.2388 78 53.4248 78 53.4248Z" fill="url(#paint0_linear_21105_71768)"/>
<path fill-rule="evenodd" clip-rule="evenodd" d="M78.0004 53.4248H48.0004C48.0004 53.4248 47.7094 92.2928 48.0004 92.2928C48.2914 92.2928 48.5809 92.2508 48.8629 92.1668C52.8814 90.9608 69.8344 85.8743 75.8629 84.0668C77.1319 83.6858 78.0004 82.5173 78.0004 81.1928C78.0004 74.2388 78.0004 53.4248 78.0004 53.4248Z" fill="url(#paint1_linear_21105_71768)"/>
<path fill-rule="evenodd" clip-rule="evenodd" d="M48.0004 63.1583L18.0004 53.4248C18.0004 53.4248 12.7399 61.2248 10.3879 64.7108C10.1239 65.1023 10.0594 65.5928 10.2124 66.0383C10.3669 66.4838 10.7194 66.8303 11.1679 66.9773C16.8664 68.8283 33.7354 74.3093 38.1604 75.7463C38.7949 75.9533 39.4909 75.7148 39.8659 75.1613C41.8774 72.1928 48.0004 63.1583 48.0004 63.1583Z" fill="url(#paint2_linear_21105_71768)"/>
<path fill-rule="evenodd" clip-rule="evenodd" d="M78 53.4248L48 63.1583C48 63.1583 54.123 72.1928 56.1345 75.1613C56.5095 75.7148 57.2055 75.9533 57.84 75.7463C62.265 74.3093 79.134 68.8283 84.8325 66.9773C85.281 66.8303 85.6335 66.4838 85.788 66.0383C85.941 65.5928 85.8765 65.1023 85.6125 64.7108C83.2605 61.2248 78 53.4248 78 53.4248Z" fill="url(#paint3_linear_21105_71768)"/>
<path fill-rule="evenodd" clip-rule="evenodd" d="M40.7389 32.9791C40.3639 32.4286 39.6694 32.1901 39.0349 32.3971C34.6129 33.8326 17.7394 39.3151 12.0409 41.1676C11.5924 41.3131 11.2384 41.6596 11.0854 42.1051C10.9324 42.5506 10.9969 43.0426 11.2609 43.4326C13.4269 46.6456 18.0004 53.4256 18.0004 53.4256L48.0004 43.6591C48.0004 43.6591 42.6124 35.7346 40.7389 32.9791Z" fill="url(#paint4_linear_21105_71768)"/>
<path fill-rule="evenodd" clip-rule="evenodd" d="M84.7395 43.4326C85.0035 43.0426 85.068 42.5506 84.915 42.1051C84.762 41.6596 84.408 41.3131 83.9595 41.1676C78.261 39.3151 61.3875 33.8326 56.9655 32.3971C56.331 32.1901 55.6365 32.4286 55.2615 32.9791C53.388 35.7346 48 43.6591 48 43.6591L78 53.4256C78 53.4256 82.5735 46.6456 84.7395 43.4326Z" fill="url(#paint5_linear_21105_71768)"/>
<path fill-rule="evenodd" clip-rule="evenodd" d="M78 53.4257L48 43.6592L18 53.4257L48 63.1592L78 53.4257Z" fill="url(#paint6_linear_21105_71768)"/>
<path fill-rule="evenodd" clip-rule="evenodd" d="M48 63.1592V43.6592L18 53.4257L48 63.1592Z" fill="url(#paint7_linear_21105_71768)"/>
<path fill-rule="evenodd" clip-rule="evenodd" d="M41.9733 47.9669C41.3493 47.5589 40.7868 47.1224 40.2873 46.6649C39.6783 46.1054 38.7288 46.1459 38.1678 46.7564C37.6083 47.3654 37.6488 48.3149 38.2593 48.8744C38.8728 49.4384 39.5643 49.9754 40.3323 50.4779C41.0253 50.9309 41.9553 50.7359 42.4083 50.0429C42.8613 49.3499 42.6663 48.4199 41.9733 47.9669Z" fill="url(#paint8_linear_21105_71768)"/>
<path fill-rule="evenodd" clip-rule="evenodd" d="M37.2986 43.3592C36.8531 42.7547 36.4766 42.1472 36.1676 41.5397C35.7926 40.8017 34.8881 40.5077 34.1501 40.8827C33.4121 41.2577 33.1181 42.1622 33.4931 42.9002C33.8741 43.6472 34.3361 44.3957 34.8836 45.1382C35.3741 45.8042 36.3131 45.9467 36.9806 45.4562C37.6466 44.9642 37.7891 44.0252 37.2986 43.3592Z" fill="url(#paint9_linear_21105_71768)"/>
<path fill-rule="evenodd" clip-rule="evenodd" d="M35.1059 37.2377C35.1209 36.6332 35.2094 36.0467 35.3714 35.4842C35.5994 34.6892 35.1389 33.8567 34.3424 33.6287C33.5474 33.4007 32.7149 33.8611 32.4869 34.6576C32.2574 35.4616 32.1284 36.3002 32.1059 37.1627C32.0864 37.9907 32.7404 38.6792 33.5684 38.6987C34.3964 38.7197 35.0849 38.0657 35.1059 37.2377Z" fill="url(#paint10_linear_21105_71768)"/>
<path fill-rule="evenodd" clip-rule="evenodd" d="M37.4134 32.2269C37.7989 31.8699 38.2309 31.5399 38.7034 31.2414C39.4039 30.7989 39.6139 29.8719 39.1729 29.1729C38.7304 28.4724 37.8034 28.2624 37.1029 28.7034C36.4684 29.1039 35.8924 29.5464 35.3749 30.0264C34.7674 30.5889 34.7314 31.5384 35.2939 32.1459C35.8564 32.7534 36.8059 32.7894 37.4134 32.2269Z" fill="url(#paint11_linear_21105_71768)"/>
<path fill-rule="evenodd" clip-rule="evenodd" d="M42.9917 29.6398C43.7462 29.5003 44.5457 29.4103 45.3887 29.3758C46.2167 29.3398 46.8587 28.6393 46.8242 27.8128C46.7897 26.9863 46.0892 26.3428 45.2612 26.3773C44.2712 26.4193 43.3322 26.5258 42.4457 26.6893C41.6327 26.8408 41.0927 27.6238 41.2442 28.4368C41.3942 29.2513 42.1772 29.7898 42.9917 29.6398Z" fill="url(#paint12_linear_21105_71768)"/>
<path fill-rule="evenodd" clip-rule="evenodd" d="M50.8093 29.5512C52.0888 29.5662 53.2798 29.5212 54.3853 29.4237C55.2103 29.3502 55.8208 28.6212 55.7473 27.7962C55.6738 26.9727 54.9448 26.3622 54.1198 26.4357C53.1073 26.5242 52.0168 26.5662 50.8438 26.5512C50.0158 26.5422 49.3363 27.2067 49.3273 28.0332C49.3168 28.8612 49.9813 29.5422 50.8093 29.5512Z" fill="url(#paint13_linear_21105_71768)"/>
<path fill-rule="evenodd" clip-rule="evenodd" d="M59.3161 28.5047C60.8011 28.0502 62.0551 27.4682 63.1051 26.8007C63.8026 26.3552 64.0096 25.4282 63.5641 24.7292C63.1201 24.0317 62.1916 23.8247 61.4926 24.2702C60.6481 24.8072 59.6356 25.2692 58.4386 25.6352C57.6481 25.8782 57.2011 26.7167 57.4441 27.5087C57.6856 28.3007 58.5256 28.7462 59.3161 28.5047Z" fill="url(#paint14_linear_21105_71768)"/>
<path fill-rule="evenodd" clip-rule="evenodd" d="M66.9507 22.6022C67.6587 21.1382 67.9302 19.5902 67.8612 18.0977C67.8222 17.2697 67.1187 16.6307 66.2922 16.6697C65.4657 16.7087 64.8252 17.4107 64.8642 18.2372C64.9122 19.2512 64.7292 20.3027 64.2492 21.2972C63.8892 22.0427 64.2012 22.9412 64.9467 23.3012C65.6922 23.6612 66.5907 23.3477 66.9507 22.6022Z" fill="url(#paint15_linear_21105_71768)"/>
<path fill-rule="evenodd" clip-rule="evenodd" d="M65.9949 12.7933C64.9014 11.3158 63.4179 10.2868 61.8009 9.95525C60.9894 9.79025 60.1959 10.3123 60.0294 11.1238C59.8644 11.9353 60.3879 12.7288 61.1979 12.8953C62.1309 13.0858 62.9529 13.7263 63.5844 14.5798C64.0779 15.2443 65.0184 15.3838 65.6829 14.8918C66.3489 14.3983 66.4884 13.4578 65.9949 12.7933Z" fill="url(#paint16_linear_21105_71768)"/>
<path fill-rule="evenodd" clip-rule="evenodd" d="M46.3994 10.2462C48.0224 1.0557 62.0879 1.6497 53.8994 10.2462H46.3994Z" fill="url(#paint17_linear_21105_71768)"/>
<path fill-rule="evenodd" clip-rule="evenodd" d="M46.3994 12.5742C48.0224 21.7632 62.0879 21.1707 53.8994 12.5742H46.3994Z" fill="url(#paint18_linear_21105_71768)"/>
<path fill-rule="evenodd" clip-rule="evenodd" d="M46.2646 12.9248H56.3087C57.1367 12.9248 57.8087 12.2528 57.8087 11.4248C57.8087 10.5968 57.1367 9.9248 56.3087 9.9248H46.2646C45.4381 9.9248 44.7646 10.5968 44.7646 11.4248C44.7646 12.2528 45.4381 12.9248 46.2646 12.9248Z" fill="url(#paint19_linear_21105_71768)"/>
<defs>
<linearGradient id="paint0_linear_21105_71768" x1="18" y1="72.8588" x2="78" y2="72.8588" gradientUnits="userSpaceOnUse">
<stop stop-color="#CADCF0"/>
<stop offset="1" stop-color="#A4BBDB"/>
</linearGradient>
<linearGradient id="paint1_linear_21105_71768" x1="47.8714" y1="72.8588" x2="78.0004" y2="72.8588" gradientUnits="userSpaceOnUse">
<stop stop-color="#A4BBDB"/>
<stop offset="1" stop-color="#8DA3BE"/>
</linearGradient>
<linearGradient id="paint2_linear_21105_71768" x1="18.1999" y1="53.4128" x2="22.3927" y2="81.1529" gradientUnits="userSpaceOnUse">
<stop stop-color="#E9F3FC"/>
<stop offset="1" stop-color="#CADCF0"/>
</linearGradient>
<linearGradient id="paint3_linear_21105_71768" x1="48.1215" y1="63.0563" x2="79.7471" y2="81.2452" gradientUnits="userSpaceOnUse">
<stop stop-color="#E9F3FC"/>
<stop offset="1" stop-color="#CADCF0"/>
</linearGradient>
<linearGradient id="paint4_linear_21105_71768" x1="14.0734" y1="47.6041" x2="18.599" y2="26.2707" gradientUnits="userSpaceOnUse">
<stop stop-color="#E9F3FC"/>
<stop offset="1" stop-color="#CADCF0"/>
</linearGradient>
<linearGradient id="paint5_linear_21105_71768" x1="56.031" y1="32.0356" x2="57.6492" y2="58.3678" gradientUnits="userSpaceOnUse">
<stop stop-color="#E9F3FC"/>
<stop offset="1" stop-color="#CADCF0"/>
</linearGradient>
<linearGradient id="paint6_linear_21105_71768" x1="18" y1="53.4092" x2="78" y2="53.4092" gradientUnits="userSpaceOnUse">
<stop stop-color="#CADCF0"/>
<stop offset="1" stop-color="#A4BBDB"/>
</linearGradient>
<linearGradient id="paint7_linear_21105_71768" x1="51.072" y1="43.2227" x2="51.7185" y2="67.4522" gradientUnits="userSpaceOnUse">
<stop stop-color="#A4BBDB"/>
<stop offset="1" stop-color="#8DA3BE"/>
</linearGradient>
<linearGradient id="paint8_linear_21105_71768" x1="31.4868" y1="10.2464" x2="61.0728" y2="45.1559" gradientUnits="userSpaceOnUse">
<stop stop-color="#559AFF"/>
<stop offset="1" stop-color="#2E69EF"/>
</linearGradient>
<linearGradient id="paint9_linear_21105_71768" x1="31.4861" y1="10.2467" x2="61.0721" y2="45.1562" gradientUnits="userSpaceOnUse">
<stop stop-color="#559AFF"/>
<stop offset="1" stop-color="#2E69EF"/>
</linearGradient>
<linearGradient id="paint10_linear_21105_71768" x1="31.4864" y1="10.2467" x2="61.0724" y2="45.1562" gradientUnits="userSpaceOnUse">
<stop stop-color="#559AFF"/>
<stop offset="1" stop-color="#2E69EF"/>
</linearGradient>
<linearGradient id="paint11_linear_21105_71768" x1="31.4869" y1="10.2459" x2="61.0729" y2="45.1554" gradientUnits="userSpaceOnUse">
<stop stop-color="#559AFF"/>
<stop offset="1" stop-color="#2E69EF"/>
</linearGradient>
<linearGradient id="paint12_linear_21105_71768" x1="31.4867" y1="10.2463" x2="61.0727" y2="45.1558" gradientUnits="userSpaceOnUse">
<stop stop-color="#559AFF"/>
<stop offset="1" stop-color="#2E69EF"/>
</linearGradient>
<linearGradient id="paint13_linear_21105_71768" x1="31.4863" y1="10.2462" x2="61.0722" y2="45.1557" gradientUnits="userSpaceOnUse">
<stop stop-color="#559AFF"/>
<stop offset="1" stop-color="#2E69EF"/>
</linearGradient>
<linearGradient id="paint14_linear_21105_71768" x1="31.4867" y1="10.2467" x2="61.0727" y2="45.1562" gradientUnits="userSpaceOnUse">
<stop stop-color="#559AFF"/>
<stop offset="1" stop-color="#2E69EF"/>
</linearGradient>
<linearGradient id="paint15_linear_21105_71768" x1="31.4862" y1="10.2467" x2="61.0722" y2="45.1562" gradientUnits="userSpaceOnUse">
<stop stop-color="#559AFF"/>
<stop offset="1" stop-color="#2E69EF"/>
</linearGradient>
<linearGradient id="paint16_linear_21105_71768" x1="31.4859" y1="10.2463" x2="61.0719" y2="45.1558" gradientUnits="userSpaceOnUse">
<stop stop-color="#559AFF"/>
<stop offset="1" stop-color="#2E69EF"/>
</linearGradient>
<linearGradient id="paint17_linear_21105_71768" x1="46.3994" y1="6.9102" x2="56.4419" y2="6.9102" gradientUnits="userSpaceOnUse">
<stop stop-color="#E9F3FC"/>
<stop offset="1" stop-color="#CADCF0"/>
</linearGradient>
<linearGradient id="paint18_linear_21105_71768" x1="46.3994" y1="15.9102" x2="56.4419" y2="15.9102" gradientUnits="userSpaceOnUse">
<stop stop-color="#E9F3FC"/>
<stop offset="1" stop-color="#CADCF0"/>
</linearGradient>
<linearGradient id="paint19_linear_21105_71768" x1="31.4866" y1="10.2458" x2="61.0726" y2="45.1553" gradientUnits="userSpaceOnUse">
<stop stop-color="#559AFF"/>
<stop offset="1" stop-color="#2E69EF"/>
</linearGradient>
</defs>
</svg>
