<svg width="25" height="25" viewBox="0 0 25 25" fill="none" xmlns="http://www.w3.org/2000/svg">
<g clip-path="url(#clip0_20551_7291)">
<path d="M22.5 6.5H15.5C13.9087 6.5 12.3826 7.13214 11.2574 8.25736C10.1321 9.38258 9.5 10.9087 9.5 12.5C9.5 14.0913 10.1321 15.6174 11.2574 16.7426C12.3826 17.8679 13.9087 18.5 15.5 18.5H22.5V20.5C22.5 20.7652 22.3946 21.0196 22.2071 21.2071C22.0196 21.3946 21.7652 21.5 21.5 21.5H3.5C3.23478 21.5 2.98043 21.3946 2.79289 21.2071C2.60536 21.0196 2.5 20.7652 2.5 20.5V4.5C2.5 4.23478 2.60536 3.98043 2.79289 3.79289C2.98043 3.60536 3.23478 3.5 3.5 3.5H21.5C21.7652 3.5 22.0196 3.60536 22.2071 3.79289C22.3946 3.98043 22.5 4.23478 22.5 4.5V6.5ZM15.5 8.5H23.5V16.5H15.5C14.4391 16.5 13.4217 16.0786 12.6716 15.3284C11.9214 14.5783 11.5 13.5609 11.5 12.5C11.5 11.4391 11.9214 10.4217 12.6716 9.67157C13.4217 8.92143 14.4391 8.5 15.5 8.5ZM15.5 11.5V13.5H18.5V11.5H15.5Z" fill="currentColor"/>
</g>
<defs>
<clipPath id="clip0_20551_7291">
<rect width="24" height="24" fill="white" transform="translate(0.5 0.5)"/>
</clipPath>
</defs>
</svg>
